<svg width="18" height="18" viewBox="0 0 18 18" fill="none" xmlns="http://www.w3.org/2000/svg">
<g clip-path="url(#clip0)">
<path d="M7.01599 0.673746C7.11951 0.799538 7.18293 0.953483 7.19806 1.11569C7.21318 1.2779 7.17931 1.44092 7.10083 1.58368C6.4877 2.7094 6.1675 3.97123 6.16969 5.2531C6.16969 9.51747 9.6461 12.9705 13.9306 12.9705C14.4895 12.9705 15.0336 12.9122 15.5564 12.8009C15.7167 12.7662 15.8836 12.7794 16.0364 12.839C16.1892 12.8986 16.321 13.0019 16.4154 13.136C16.5151 13.2754 16.5659 13.4438 16.56 13.6151C16.554 13.7864 16.4917 13.9509 16.3826 14.083C15.5508 15.1048 14.5014 15.928 13.3111 16.4928C12.1207 17.0575 10.8194 17.3494 9.50186 17.3473C4.61284 17.3473 0.652832 13.4085 0.652832 8.55558C0.652832 4.90312 2.89478 1.77033 6.08697 0.442551C6.24598 0.375348 6.42251 0.361554 6.59003 0.403243C6.75755 0.444933 6.90702 0.539853 7.01599 0.673746ZM5.80487 1.76927C4.57742 2.42768 3.55129 3.40634 2.83553 4.60126C2.11978 5.79618 1.74114 7.16269 1.73987 8.55558C1.73987 12.8189 5.21734 16.272 9.50186 16.272C10.5279 16.2737 11.544 16.072 12.4915 15.6784C13.4391 15.2849 14.2991 14.7073 15.0219 13.9791C14.6645 14.0237 14.3007 14.0459 13.9306 14.0459C9.0416 14.0459 5.08265 10.1071 5.08265 5.25416C5.08265 4.01652 5.3393 2.83828 5.80487 1.76927Z" fill="white"/>
<path d="M12.0997 3.71744C12.1149 3.67152 12.1442 3.63155 12.1834 3.60322C12.2226 3.5749 12.2698 3.55965 12.3182 3.55965C12.3665 3.55965 12.4137 3.5749 12.4529 3.60322C12.4921 3.63155 12.5214 3.67152 12.5366 3.71744L12.947 4.94977C13.1305 5.49913 13.5611 5.9297 14.1104 6.11317L15.3428 6.5236C15.3887 6.5388 15.4287 6.5681 15.457 6.60732C15.4853 6.64654 15.5006 6.69368 15.5006 6.74206C15.5006 6.79044 15.4853 6.83759 15.457 6.87681C15.4287 6.91603 15.3887 6.94532 15.3428 6.96053L14.1104 7.37096C13.8395 7.46122 13.5933 7.61335 13.3914 7.81529C13.1894 8.01722 13.0373 8.26342 12.947 8.53435L12.5366 9.76668C12.5214 9.81261 12.4921 9.85258 12.4529 9.8809C12.4137 9.90923 12.3665 9.92448 12.3182 9.92448C12.2698 9.92448 12.2226 9.90923 12.1834 9.8809C12.1442 9.85258 12.1149 9.81261 12.0997 9.76668L11.6893 8.53435C11.599 8.26342 11.4469 8.01722 11.2449 7.81529C11.043 7.61335 10.7968 7.46122 10.5259 7.37096L9.29353 6.96053C9.24761 6.94532 9.20764 6.91603 9.17932 6.87681C9.15099 6.83759 9.13574 6.79044 9.13574 6.74206C9.13574 6.69368 9.15099 6.64654 9.17932 6.60732C9.20764 6.5681 9.24761 6.5388 9.29353 6.5236L10.5259 6.11317C10.7968 6.0229 11.043 5.87077 11.2449 5.66884C11.4469 5.4669 11.599 5.22071 11.6893 4.94977L12.0997 3.71744ZM15.3544 0.483897C15.3649 0.4537 15.3845 0.427515 15.4106 0.408983C15.4366 0.390451 15.4678 0.380493 15.4997 0.380493C15.5317 0.380493 15.5629 0.390451 15.5889 0.408983C15.6149 0.427515 15.6346 0.4537 15.645 0.483897L15.9186 1.30474C16.0406 1.67169 16.328 1.95909 16.6949 2.08105L17.5158 2.35467C17.546 2.36514 17.5722 2.38475 17.5907 2.41079C17.6092 2.43683 17.6192 2.468 17.6192 2.49996C17.6192 2.53192 17.6092 2.56308 17.5907 2.58912C17.5722 2.61516 17.546 2.63478 17.5158 2.64525L16.6949 2.91887C16.5141 2.97902 16.3498 3.08051 16.215 3.21526C16.0803 3.35002 15.9788 3.51434 15.9186 3.69517L15.645 4.51602C15.6346 4.54622 15.6149 4.5724 15.5889 4.59093C15.5629 4.60946 15.5317 4.61942 15.4997 4.61942C15.4678 4.61942 15.4366 4.60946 15.4106 4.59093C15.3845 4.5724 15.3649 4.54622 15.3544 4.51602L15.0808 3.69517C15.0207 3.51434 14.9192 3.35002 14.7844 3.21526C14.6497 3.08051 14.4854 2.97902 14.3045 2.91887L13.4837 2.64525C13.4535 2.63478 13.4273 2.61516 13.4088 2.58912C13.3902 2.56308 13.3803 2.53192 13.3803 2.49996C13.3803 2.468 13.3902 2.43683 13.4088 2.41079C13.4273 2.38475 13.4535 2.36514 13.4837 2.35467L14.3045 2.08105C14.6715 1.95909 14.9589 1.67169 15.0808 1.30474L15.3544 0.484958V0.483897Z" fill="white"/>
</g>
<defs>
<clipPath id="clip0">
<rect width="16.9684" height="16.9684" fill="white" transform="translate(0.652832 0.378967)"/>
</clipPath>
</defs>
</svg>
