<svg width="21" height="22" viewBox="0 0 21 22" fill="none" xmlns="http://www.w3.org/2000/svg">
<path d="M9.95996 2.20746H11.2189V5.35483H9.95996V2.20746Z" fill="black"/>
<path d="M14.1693 6.55089L16.3762 4.34332L17.2663 5.23403L15.0594 7.44096L14.1693 6.55089Z" fill="black"/>
<path d="M16.2546 10.3906H19.402V11.6496H16.2546V10.3906Z" fill="black"/>
<path d="M14.1693 15.4894L15.0594 14.5993L17.2663 16.8062L16.3762 17.6969L14.1693 15.4894Z" fill="black"/>
<path d="M9.95996 16.6854H11.2189V19.8327H9.95996V16.6854Z" fill="black"/>
<path d="M3.91333 16.8062L6.12026 14.5993L7.01034 15.49L4.80341 17.6969L3.91333 16.8062Z" fill="black"/>
<path d="M1.77698 10.3906H4.92435V11.6496H1.77698V10.3906Z" fill="black"/>
<path d="M3.91333 5.23403L4.80341 4.34332L7.01034 6.55089L6.12026 7.44096L3.91333 5.23403Z" fill="black"/>
<path d="M10.5893 8.50223C11.0873 8.50223 11.5741 8.64991 11.9882 8.92658C12.4023 9.20325 12.725 9.59649 12.9156 10.0566C13.1061 10.5167 13.156 11.0229 13.0589 11.5113C12.9617 11.9998 12.7219 12.4484 12.3698 12.8005C12.0176 13.1527 11.569 13.3925 11.0806 13.4896C10.5921 13.5868 10.0859 13.5369 9.62579 13.3464C9.1657 13.1558 8.77246 12.8331 8.49579 12.419C8.21912 12.0049 8.07145 11.5181 8.07145 11.0201C8.07228 10.3526 8.33783 9.71264 8.80984 9.24063C9.28186 8.76861 9.92181 8.50307 10.5893 8.50223ZM10.5893 7.24329C9.84235 7.24329 9.11214 7.46479 8.49104 7.8798C7.86994 8.2948 7.38586 8.88467 7.1 9.57479C6.81414 10.2649 6.73934 11.0243 6.88507 11.757C7.0308 12.4896 7.39051 13.1626 7.91871 13.6908C8.44691 14.219 9.11988 14.5787 9.85252 14.7244C10.5852 14.8701 11.3446 14.7953 12.0347 14.5095C12.7248 14.2236 13.3147 13.7395 13.7297 13.1184C14.1447 12.4973 14.3662 11.7671 14.3662 11.0201C14.3662 10.0184 13.9683 9.05779 13.26 8.3495C12.5517 7.6412 11.591 7.24329 10.5893 7.24329Z" fill="black"/>
</svg>
